<?xml version="1.0" standalone="no"?>
<!DOCTYPE svg PUBLIC "-//W3C//DTD SVG 20010904//EN"
 "http://www.w3.org/TR/2001/REC-SVG-20010904/DTD/svg10.dtd">
<svg version="1.0" xmlns="http://www.w3.org/2000/svg"
 width="900.000000pt" height="900.000000pt" viewBox="0 0 900.000000 900.000000"
 preserveAspectRatio="xMidYMid meet">

<g transform="translate(0.000000,900.000000) scale(0.100000,-0.100000)"
fill="#b3b3b3" stroke="none">
<path d="M540 4500 l0 -3032 23 14 c38 25 1779 1161 2792 1821 l960 626 5
-1229 5 -1229 315 205 c173 113 383 249 465 303 83 54 366 239 630 411 903
589 1532 999 2803 1828 232 152 422 279 422 282 0 4 -87 63 -192 132 -474 309
-2580 1682 -3648 2379 -74 48 -283 185 -465 303 l-330 216 -5 -1230 -5 -1229
-660 430 c-363 237 -728 475 -812 529 -83 55 -623 407 -1200 783 -576 376
-1060 691 -1075 701 l-28 18 0 -3032z"/>
</g>
</svg>
